<mxfile host="app.diagrams.net" agent="Mozilla/5.0 (Windows NT 10.0; Win64; x64) AppleWebKit/537.36 (KHTML, like Gecko) Chrome/130.0.0.0 Safari/537.36" version="24.8.6">
  <diagram name="Trang-1" id="Mj6SYemX6sITuUGNzqf1">
    <mxGraphModel grid="1" page="1" gridSize="10" guides="1" tooltips="1" connect="1" arrows="1" fold="1" pageScale="1" pageWidth="827" pageHeight="1169" math="0" shadow="0">
      <root>
        <mxCell id="0" />
        <mxCell id="1" parent="0" />
        <mxCell id="QjnNgCGbS_n-1OCElICw-3" value="" style="edgeStyle=orthogonalEdgeStyle;rounded=0;orthogonalLoop=1;jettySize=auto;html=1;" edge="1" parent="1" source="QjnNgCGbS_n-1OCElICw-1" target="QjnNgCGbS_n-1OCElICw-2">
          <mxGeometry relative="1" as="geometry" />
        </mxCell>
        <mxCell id="QjnNgCGbS_n-1OCElICw-1" value="Start" style="ellipse;whiteSpace=wrap;html=1;" vertex="1" parent="1">
          <mxGeometry x="354" y="150" width="120" height="80" as="geometry" />
        </mxCell>
        <mxCell id="QjnNgCGbS_n-1OCElICw-5" value="" style="edgeStyle=orthogonalEdgeStyle;rounded=0;orthogonalLoop=1;jettySize=auto;html=1;" edge="1" parent="1" source="QjnNgCGbS_n-1OCElICw-2" target="QjnNgCGbS_n-1OCElICw-6">
          <mxGeometry relative="1" as="geometry">
            <mxPoint x="414" y="460" as="targetPoint" />
          </mxGeometry>
        </mxCell>
        <mxCell id="QjnNgCGbS_n-1OCElICw-2" value="Nhập số nguyên n" style="shape=parallelogram;perimeter=parallelogramPerimeter;whiteSpace=wrap;html=1;fixedSize=1;" vertex="1" parent="1">
          <mxGeometry x="354" y="320" width="120" height="60" as="geometry" />
        </mxCell>
        <mxCell id="QjnNgCGbS_n-1OCElICw-8" value="" style="edgeStyle=orthogonalEdgeStyle;rounded=0;orthogonalLoop=1;jettySize=auto;html=1;" edge="1" parent="1" source="QjnNgCGbS_n-1OCElICw-6" target="QjnNgCGbS_n-1OCElICw-7">
          <mxGeometry relative="1" as="geometry" />
        </mxCell>
        <mxCell id="QjnNgCGbS_n-1OCElICw-11" style="edgeStyle=orthogonalEdgeStyle;rounded=0;orthogonalLoop=1;jettySize=auto;html=1;entryX=0.5;entryY=0;entryDx=0;entryDy=0;" edge="1" parent="1" source="QjnNgCGbS_n-1OCElICw-6" target="QjnNgCGbS_n-1OCElICw-9">
          <mxGeometry relative="1" as="geometry" />
        </mxCell>
        <mxCell id="QjnNgCGbS_n-1OCElICw-6" value="Kiểm tra n % 2 == 0" style="rounded=0;whiteSpace=wrap;html=1;" vertex="1" parent="1">
          <mxGeometry x="354" y="430" width="120" height="60" as="geometry" />
        </mxCell>
        <mxCell id="QjnNgCGbS_n-1OCElICw-14" value="" style="edgeStyle=orthogonalEdgeStyle;rounded=0;orthogonalLoop=1;jettySize=auto;html=1;" edge="1" parent="1" source="QjnNgCGbS_n-1OCElICw-7" target="QjnNgCGbS_n-1OCElICw-12">
          <mxGeometry relative="1" as="geometry" />
        </mxCell>
        <mxCell id="QjnNgCGbS_n-1OCElICw-7" value="n chẵn" style="rhombus;whiteSpace=wrap;html=1;rounded=0;" vertex="1" parent="1">
          <mxGeometry x="310" y="544.5" width="80" height="80" as="geometry" />
        </mxCell>
        <mxCell id="QjnNgCGbS_n-1OCElICw-13" value="" style="edgeStyle=orthogonalEdgeStyle;rounded=0;orthogonalLoop=1;jettySize=auto;html=1;" edge="1" parent="1" source="QjnNgCGbS_n-1OCElICw-9" target="QjnNgCGbS_n-1OCElICw-12">
          <mxGeometry relative="1" as="geometry" />
        </mxCell>
        <mxCell id="QjnNgCGbS_n-1OCElICw-9" value="n lẻ" style="rhombus;whiteSpace=wrap;html=1;" vertex="1" parent="1">
          <mxGeometry x="440" y="545" width="80" height="80" as="geometry" />
        </mxCell>
        <mxCell id="QjnNgCGbS_n-1OCElICw-16" value="" style="edgeStyle=orthogonalEdgeStyle;rounded=0;orthogonalLoop=1;jettySize=auto;html=1;" edge="1" parent="1" source="QjnNgCGbS_n-1OCElICw-12" target="QjnNgCGbS_n-1OCElICw-15">
          <mxGeometry relative="1" as="geometry" />
        </mxCell>
        <mxCell id="QjnNgCGbS_n-1OCElICw-12" value="in ra kết quả" style="shape=parallelogram;perimeter=parallelogramPerimeter;whiteSpace=wrap;html=1;fixedSize=1;" vertex="1" parent="1">
          <mxGeometry x="354" y="670" width="120" height="60" as="geometry" />
        </mxCell>
        <mxCell id="QjnNgCGbS_n-1OCElICw-15" value="kết thúc" style="ellipse;whiteSpace=wrap;html=1;" vertex="1" parent="1">
          <mxGeometry x="354" y="770" width="120" height="80" as="geometry" />
        </mxCell>
      </root>
    </mxGraphModel>
  </diagram>
</mxfile>
